<?xml version="1.0" encoding="UTF-8" standalone="no"?>
<svg
   xmlns:dc="http://purl.org/dc/elements/1.1/"
   xmlns:cc="http://creativecommons.org/ns#"
   xmlns:rdf="http://www.w3.org/1999/02/22-rdf-syntax-ns#"
   xmlns:svg="http://www.w3.org/2000/svg"
   xmlns="http://www.w3.org/2000/svg"
   xmlns:sodipodi="http://sodipodi.sourceforge.net/DTD/sodipodi-0.dtd"
   xmlns:inkscape="http://www.inkscape.org/namespaces/inkscape"
   width="128.996"
   height="36.001919"
   viewBox="0 0 128.996 36.001919"
   fill="none"
   class="header-module--logo--3bSX-"
   version="1.1"
   id="svg156"
   sodipodi:docname="vshn.svg"
   inkscape:version="1.0.2 (394de47547, 2021-03-26)">
  <metadata
     id="metadata162">
    <rdf:RDF>
      <cc:Work
         rdf:about="">
        <dc:format>image/svg+xml</dc:format>
        <dc:type
           rdf:resource="http://purl.org/dc/dcmitype/StillImage" />
        <dc:title></dc:title>
      </cc:Work>
    </rdf:RDF>
  </metadata>
  <defs
     id="defs160" />
  <sodipodi:namedview
     pagecolor="#ffffff"
     bordercolor="#666666"
     borderopacity="1"
     objecttolerance="10"
     gridtolerance="10"
     guidetolerance="10"
     inkscape:pageopacity="0"
     inkscape:pageshadow="2"
     inkscape:window-width="1866"
     inkscape:window-height="1016"
     id="namedview158"
     showgrid="false"
     lock-margins="true"
     fit-margin-top="3"
     fit-margin-left="3"
     fit-margin-right="3"
     fit-margin-bottom="3"
     inkscape:zoom="13.443548"
     inkscape:cx="64.77"
     inkscape:cy="18.000252"
     inkscape:window-x="54"
     inkscape:window-y="27"
     inkscape:window-maximized="1"
     inkscape:current-layer="svg156" />
  <circle
     cx="29.501001"
     cy="18.000252"
     r="9.5"
     fill="#4081cb"
     id="circle150" />
  <path
     d="m 18.797,6.2462517 v 4.2840003 l 2.609,-1.5870003 a 15.583,15.583 0 0 1 16.212,0 l 0.312,0.19 v 0.002 l 0.07,0.04 v -4.195 l -0.069,-0.034 a 19.19,19.19 0 0 0 -18.404,0.855 z M 40.218,29.754252 v -4.284 l -2.609,1.586 a 15.582,15.582 0 0 1 -16.212,0 l -0.313,-0.19 v -0.002 L 21,26.821252 v 4.196 l 0.084,0.039 a 19.191,19.191 0 0 0 18.404,-0.856 l 0.73,-0.445 z"
     fill="#4081cb"
     id="path152" />
  <path
     d="M 18.786,10.532252 V 6.2462517 L 3,15.847252 v 4.307 l 15.786,9.602 v -4.286 l -12.28,-7.47 z m 21.43,19.224 15.786,-9.602 v -4.307 L 40.216,6.2472517 v 4.2850003 l 12.28,7.468 -12.28,7.47 v 4.285 z m 46.729,-6.206 c -0.358,0.09 -0.806,0.14 -1.354,0.14 -1.095,0 -2.02,-0.11 -2.768,-0.328 a 9.687,9.687 0 0 1 -1.901,-0.757 l -1.096,3.087 c 0.23,0.129 0.518,0.268 0.857,0.418 0.338,0.14 0.736,0.279 1.214,0.418 0.478,0.14 1.016,0.249 1.633,0.338 0.618,0.09 1.305,0.14 2.071,0.14 2.27,0 3.973,-0.448 5.098,-1.334 1.125,-0.887 1.693,-2.131 1.693,-3.744 0,-0.826 -0.1,-1.533 -0.319,-2.11 a 4.152,4.152 0 0 0 -0.986,-1.514 c -0.438,-0.438 -0.985,-0.817 -1.652,-1.136 a 24.117,24.117 0 0 0 -2.34,-0.985 29.13,29.13 0 0 1 -1.185,-0.438 5.992,5.992 0 0 1 -0.946,-0.478 c -0.279,-0.18 -0.488,-0.369 -0.637,-0.588 a 1.44,1.44 0 0 1 -0.22,-0.796 c 0,-0.538 0.2,-0.926 0.608,-1.185 0.408,-0.259 1.075,-0.388 2.001,-0.388 0.837,0 1.544,0.1 2.131,0.288 0.588,0.19 1.125,0.409 1.603,0.657 l 1.115,-3.055 c -0.547,-0.2990003 -1.254,-0.5580003 -2.09,-0.8170003 -0.837,-0.259 -1.843,-0.378 -3.007,-0.378 -0.976,0 -1.862,0.12 -2.64,0.358 a 5.907,5.907 0 0 0 -1.99,1.0360003 4.523,4.523 0 0 0 -1.275,1.633 c -0.299,0.637 -0.448,1.354 -0.448,2.15 0,0.797 0.14,1.474 0.418,2.032 a 4.65,4.65 0 0 0 1.096,1.414 c 0.438,0.398 0.945,0.716 1.513,0.975 0.567,0.26 1.125,0.488 1.693,0.687 1.294,0.428 2.21,0.827 2.738,1.205 0.527,0.369 0.796,0.837 0.796,1.404 0,0.259 -0.04,0.498 -0.12,0.717 -0.079,0.209 -0.228,0.398 -0.447,0.558 -0.21,0.159 -0.498,0.288 -0.857,0.378 z m -19.655,-1.413 a 138.018,138.018 0 0 0 2.032,4.51 v -0.01 h 3.694 a 120.951,120.951 0 0 0 2.021,-4.5 168.69,168.69 0 0 0 1.892,-4.63 210.708,210.708 0 0 0 1.653,-4.381 c 0.507,-1.384 0.945,-2.629 1.334,-3.7340003 h -4.132 a 136.135,136.135 0 0 1 -1.076,3.2360003 c -0.388,1.155 -0.796,2.3 -1.204,3.445 -0.409,1.145 -0.807,2.24 -1.195,3.286 a 55.972,55.972 0 0 1 -1.066,2.708 37.937,37.937 0 0 1 -1.075,-2.718 c -0.222,-0.63 -0.454,-1.276 -0.693,-1.941 l -10e-4,-0.003 c -0.158,-0.44 -0.319,-0.887 -0.48,-1.342 -0.409,-1.145 -0.807,-2.29 -1.206,-3.445 -0.398,-1.155 -0.756,-2.23 -1.075,-3.2260003 h -4.281 c 0.368,1.0950003 0.806,2.3400003 1.304,3.7340003 a 153.73,153.73 0 0 0 1.653,4.38 146.744,146.744 0 0 0 1.902,4.63 z M 104.539,9.4022517 h 3.883 V 26.648252 h -3.883 v -7.319 h -6.522 v 7.319 H 94.134 V 9.4022517 h 3.883 v 6.5920003 h 6.522 z m 14.587,11.3910003 a 90.942,90.942 0 0 1 3.604,5.855 h 3.266 V 9.4022517 h -3.863 V 19.568252 a 181.464,181.464 0 0 0 -1.912,-2.798 93.097,93.097 0 0 0 -2.051,-2.807 67.257,67.257 0 0 0 -2.031,-2.55 28.646,28.646 0 0 0 -1.812,-2.0100003 h -3.166 V 26.648252 h 3.833 v -11.311 a 59.7,59.7 0 0 1 4.132,5.456 z"
     fill="#444444"
     id="path154" />
</svg>
